<svg width="28" height="30" viewBox="0 0 28 30" fill="none" xmlns="http://www.w3.org/2000/svg">
<path d="M13.7147 2.87812C13.8045 2.60172 14.1955 2.60172 14.2853 2.87812L16.8513 10.7755C16.8915 10.8991 17.0067 10.9828 17.1366 10.9828H25.4404C25.731 10.9828 25.8519 11.3547 25.6168 11.5255L18.8989 16.4063C18.7937 16.4827 18.7497 16.6181 18.7899 16.7417L21.3559 24.6391C21.4457 24.9155 21.1294 25.1453 20.8942 24.9745L14.1763 20.0937C14.0712 20.0173 13.9288 20.0173 13.8237 20.0937L7.10576 24.9745C6.87065 25.1453 6.5543 24.9155 6.64411 24.6391L9.21012 16.7417C9.25028 16.6181 9.20628 16.4827 9.10114 16.4063L2.38324 11.5255C2.14812 11.3547 2.26895 10.9828 2.55957 10.9828H10.8634C10.9933 10.9828 11.1085 10.8991 11.1487 10.7755L13.7147 2.87812Z" fill="#F5C25A"/>
</svg>
